<svg width="4000" viewBox="0 0 1659 516" fill="none" xmlns="http://www.w3.org/2000/svg">
    <path d="M867.61 511.378C796.46 450.028 700.86 423.738 607.14 417.208C513.42 410.678 419.52 422.058 325.7 426.968C283.89 429.148 241.58 429.968 200.53 421.758C127.74 407.128 60.0504 361.308 26.5804 295.038C-6.88962 228.768 -1.93962 142.768 45.1704 85.378C91.7404 28.658 169.53 6.97797 242.9 5.13797C325.568 3.17747 407.391 22.1377 480.77 60.258C583.77 113.938 669.1 204.838 782.11 231.718C815.11 239.568 849.2 241.538 883.11 242.718C948.25 245.038 1013.92 244.628 1077.97 232.528C1177.81 213.668 1269.88 167.258 1363.47 127.698C1457.06 88.138 1557.07 54.528 1658.27 63.588" stroke="#F0E6E0" stroke-width="10" stroke-miterlimit="10"/>
</svg>
